:SAMPLES-PER-SECOND 30
:FULLY-SPECIFIED
:DEGREES
663
root  -1.51115 28.1787 -4.47945 -30.9287 -15.5688 93.6255
Spine  -1.66137 0.44632 -10.7647
Spine1  -0.872688 23.7789 0.785768
Neck  3.97569e-016 0 -2.38542e-015
Head  -39.4958 -9.37892 3.48659
R_Clavicle  1.13193 -2.49622 6.1963
R_UpperArm  64.3999 17.7637 71.9306
R_Forearm  20.6496 -38.5756 37.7314
R_Hand  -0.796551 12.1148 -18.129
L_Clavicle  -0.598707 6.54882 4.96633
L_UpperArm  -59.9269 -6.51729 62.7128
L_Forearm  -8.34069 26.6952 38.3069
L_Hand  -0.408246 6.49433 -3.67228
L_Thigh  5.06938 3.043 -23.5836
L_Calf  -10.3278 0.825736 -6.35948
L_Foot  6.86321 0.154316 30.6079
L_Toe0  3.40793 -1.37699 12.0486
R_Thigh  13.839 8.37046 13.2662
R_Calf  -10.1335 0.239514 0.951892
R_Foot  0.532248 1.5798 -0.72449
R_Toe0  -0.912837 -0.133785 -10.8011
664
root  -1.0669 28.1137 -4.38866 -31.7948 -15.6436 93.0031
Spine  -1.55636 1.64279 -9.90428
Spine1  -0.878469 22.1864 0.731348
Neck  3.97569e-016 0 -2.38542e-015
Head  -38.9379 -9.16814 4.8825
R_Clavicle  1.1095 -3.19434 6.20761
R_UpperArm  65.4416 19.5079 69.9397
R_Forearm  20.9652 -38.0377 37.3863
R_Hand  -0.915373 12.0869 -18.8456
L_Clavicle  -0.594943 6.78838 4.96417
L_UpperArm  -59.2709 -4.22306 62.781
L_Forearm  -9.68723 26.6299 39.5004
L_Hand  -0.440892 7.14645 -3.76034
L_Thigh  2.85589 3.32312 -22.4263
L_Calf  -9.98873 1.12897 -8.5911
L_Foot  6.68793 0.0506813 30.1338
L_Toe0  2.81293 -1.30781 13.3272
R_Thigh  12.3783 8.99806 12.5794
R_Calf  -10.3081 0.775474 2.60846
R_Foot  0.463109 1.84243 0.708911
R_Toe0  -1.43357 -0.167797 -13.6386
665
root  -0.706947 28.1652 -4.17526 -31.9962 -15.2261 93.1112
Spine  -1.79644 3.22282 -9.55958
Spine1  -1.55442 20.9577 -0.484987
Neck  3.97569e-016 0 -2.38542e-015
Head  -38.4675 -9.45691 6.46522
R_Clavicle  1.03393 -4.01947 5.91576
R_UpperArm  65.196 21.236 69.2595
R_Forearm  20.3806 -36.9029 34.9232
R_Hand  -0.911242 11.7103 -18.7754
L_Clavicle  -0.613675 7.70767 5.40216
L_UpperArm  -56.8447 -3.44251 61.5326
L_Forearm  -10.6906 26.6721 41.0124
L_Hand  -0.485545 7.52 -4.03187
L_Thigh  2.18789 3.18606 -21.2155
L_Calf  -9.34851 1.1922 -9.05428
L_Foot  6.73946 0.0225166 30.3985
L_Toe0  3.24176 -1.35846 12.3684
R_Thigh  12.1826 8.60772 12.489
R_Calf  -12.6137 1.40176 4.53379
R_Foot  0.123669 0.961594 1.47922
R_Toe0  -1.63462 -0.2257 -15.7652
666
root  -0.363379 28.2588 -3.89374 -32.2776 -14.2773 92.9735
Spine  -1.68852 3.84733 -9.33676
Spine1  -1.67206 20.3977 -1.18577
Neck  3.97569e-016 0 -2.38542e-015
Head  -38.4252 -9.49344 6.57398
R_Clavicle  1.0453 -4.28768 6.04074
R_UpperArm  65.7918 23.1503 67.759
R_Forearm  20.2234 -36.6387 34.6257
R_Hand  -0.998196 11.3889 -19.2851
L_Clavicle  -0.638396 8.80643 6.12647
L_UpperArm  -56.0559 -4.14109 58.8561
L_Forearm  -10.844 26.722 41.678
L_Hand  -0.525451 7.58458 -4.35707
L_Thigh  2.05076 2.20147 -20.5129
L_Calf  -8.81237 1.07449 -8.19929
L_Foot  7.62301 1.24841 31.2354
L_Toe0  3.09494 -1.17748 10.9218
R_Thigh  12.9589 7.45353 13.1894
R_Calf  -13.6274 1.70809 5.48144
R_Foot  -0.0499257 -0.130979 0.110554
R_Toe0  -1.63241 -0.225526 -15.7423
667
root  -0.0665005 28.4255 -3.57483 -31.4346 -13.0967 91.8526
Spine  -1.69639 3.29485 -8.87705
Spine1  -1.68257 20.5991 -1.08262
Neck  3.97569e-016 0 -2.38542e-015
Head  -37.9994 -8.98254 6.26962
R_Clavicle  1.1897 -3.75382 6.8123
R_UpperArm  68.2826 24.1371 64.0179
R_Forearm  21.406 -35.4488 34.8093
R_Hand  -1.17635 11.2985 -20.398
L_Clavicle  -0.628915 9.60046 6.31842
L_UpperArm  -57.507 -6.2551 55.179
L_Forearm  -9.85802 26.7719 40.3906
L_Hand  -0.584746 7.515 -4.8993
L_Thigh  2.35923 0.723422 -20.602
L_Calf  -8.43951 0.852397 -6.57611
L_Foot  8.86963 3.28098 31.7107
L_Toe0  2.18923 -0.809192 9.66414
R_Thigh  12.0095 6.0686 13.3361
R_Calf  -11.9796 2.0374 6.50752
R_Foot  0.334942 0.339926 -2.117
R_Toe0  -1.57634 -0.209419 -15.1824
668
root  0.158134 28.7421 -3.16052 -28.2276 -11.3083 90.125
Spine  -2.49454 2.57098 -8.32704
Spine1  -2.59939 20.8734 -1.31027
Neck  3.97569e-016 0 -2.38542e-015
Head  -35.9794 -8.76569 7.3149
R_Clavicle  1.32579 -2.6557 7.3401
R_UpperArm  69.8893 22.4445 59.6318
R_Forearm  23.5186 -29.9741 28.8492
R_Hand  -1.07109 10.7615 -19.7094
L_Clavicle  -0.583572 10.0185 5.67965
L_UpperArm  -58.2485 -10.2742 50.1464
L_Forearm  -8.15935 26.6777 37.2375
L_Hand  -0.651159 7.39944 -5.53046
L_Thigh  4.25648 -1.37203 -20.8385
L_Calf  -7.23636 0.562755 -4.43042
L_Foot  9.69054 5.20368 30.9526
L_Toe0  2.20906 -0.7279 8.43824
R_Thigh  8.18144 4.08322 13.0691
R_Calf  -8.59395 2.48041 7.88516
R_Foot  1.37357 3.23296 -5.69567
R_Toe0  -1.55138 -0.153251 -13.3695
669
root  0.357165 29.2532 -2.5667 -23.7471 -8.15769 88.7702
Spine  -3.78187 2.55943 -8.33675
Spine1  -4.148 20.1736 -2.05824
Neck  3.97569e-016 0 -2.38542e-015
Head  -32.1457 -9.4728 9.65581
R_Clavicle  1.31109 -1.64014 7.01572
R_UpperArm  65.9078 18.4895 55.7388
R_Forearm  24.3555 -18.7846 16.3776
R_Hand  -0.512891 9.45805 -15.7134
L_Clavicle  -0.527156 10.0919 4.64118
L_UpperArm  -55.2001 -15.3319 42.5471
L_Forearm  -6.94808 25.2799 32.8972
L_Hand  -0.677932 7.31703 -5.80531
L_Thigh  7.13381 -4.7254 -20.4729
L_Calf  -5.49958 0.146101 -1.35668
L_Foot  10.2756 7.8266 28.4855
L_Toe0  2.58703 -0.771718 7.71226
R_Thigh  3.12509 1.18203 13.9346
R_Calf  -1.60461 2.76368 8.78052
R_Foot  2.38627 5.33028 -12.4441
R_Toe0  0.263456 -0.206592 -10.5292
670
root  0.598008 29.8724 -1.8092 -20.2034 -4.10898 88.2856
Spine  -4.62219 3.84804 -8.66459
Spine1  -5.25619 18.0932 -2.89274
Neck  3.97569e-016 0 -2.38542e-015
Head  -27.4955 -10.7689 11.8944
R_Clavicle  1.18223 -1.08398 6.2088
R_UpperArm  56.3817 14.5063 50.115
R_Forearm  19.8235 -4.52981 3.74708
R_Hand  0.0949109 8.14982 -10.5287
L_Clavicle  -0.472353 9.57858 3.57002
L_UpperArm  -48.7803 -19.1397 32.066
L_Forearm  -6.29803 21.9509 27.7306
L_Hand  -0.674766 7.48617 -5.69771
L_Thigh  8.49939 -8.83142 -19.4094
L_Calf  -3.67115 -0.356369 2.32594
L_Foot  10.6598 11.3938 24.4779
L_Toe0  2.45061 -0.777599 8.22776
R_Thigh  -1.10651 -0.787548 15.8783
R_Calf  11.6971 3.03957 9.66244
R_Foot  1.76025 -2.17083 -18.2319
R_Toe0  5.70269 -0.71311 -13.5255
671
root  0.890312 30.3691 -1.01017 -18.4424 -0.519358 88.2344
Spine  -4.43981 6.70883 -7.45723
Spine1  -5.65432 15.2861 -4.76752
Neck  3.97569e-016 0 -2.38542e-015
Head  -23.338 -12.2717 13.0463
R_Clavicle  0.96942 -0.81874 5.03709
R_UpperArm  43.0904 11.4275 40.4243
R_Forearm  12.137 5.82247 -4.88685
R_Hand  0.656971 8.4905 -6.61571
L_Clavicle  -0.397736 8.17092 2.4236
L_UpperArm  -41.8912 -20.7071 20.2607
L_Forearm  -5.51 17.9481 21.9566
L_Hand  -0.672607 7.89866 -5.49537
L_Thigh  7.22039 -12.3088 -17.8204
L_Calf  -0.9475 -0.682704 4.73575
L_Foot  10.2879 13.8836 20.302
L_Toe0  3.49771 -1.07778 8.70224
R_Thigh  -3.03229 -1.16063 17.5028
R_Calf  20.5457 3.48204 10.984
R_Foot  1.18249 -9.95822 -20.4815
R_Toe0  4.81776 -0.61912 -13.4921
672
root  1.25881 30.6254 -0.225556 -17.9724 1.85807 88.2839
Spine  -3.10177 10.8339 -3.67476
Spine1  -5.46697 12.7477 -8.19691
Neck  3.97569e-016 0 -2.38542e-015
Head  -20.9269 -13.9936 12.5929
R_Clavicle  0.582763 -0.654027 2.99177
R_UpperArm  27.8205 8.64898 28.0367
R_Forearm  5.73427 8.56248 -7.21305
R_Hand  1.25611 9.30962 -3.18287
L_Clavicle  -0.290407 5.95038 1.39347
L_UpperArm  -34.864 -21.7957 8.42595
L_Forearm  -5.53638 13.9179 16.6201
L_Hand  -0.637014 8.24092 -5.05697
L_Thigh  4.55076 -14.6278 -15.6399
L_Calf  2.52939 -0.694246 4.85615
L_Foot  9.21976 13.9672 17.2423
L_Toe0  6.70102 -1.73432 7.65043
R_Thigh  -0.0636614 -0.374752 19.0691
R_Calf  14.0942 2.98803 9.30016
R_Foot  1.3903 -4.93958 -17.5321
R_Toe0  2.77289 -0.480329 -15.011
673
root  1.67362 30.5778 0.532326 -18.1761 4.28788 88.2731
Spine  -0.942151 14.094 0.95502
Spine1  -4.458 10.9112 -11.1249
Neck  3.97569e-016 0 -2.38542e-015
Head  -21.3479 -15.481 10.0029
R_Clavicle  0.0285623 -0.456621 0.106097
R_UpperArm  14.1026 6.90385 15.5115
R_Forearm  2.44528 4.23425 -3.55336
R_Hand  1.73479 9.53983 -0.159222
L_Clavicle  -0.240784 4.05455 1.23056
L_UpperArm  -27.1998 -25.2302 -4.7692
L_Forearm  -5.38794 10.6122 12.4873
L_Hand  -0.527204 8.43991 -4.08466
L_Thigh  0.987163 -17.1617 -13.209
L_Calf  4.95523 -0.554412 3.87549
L_Foot  8.76677 13.8093 16.1418
L_Toe0  9.16395 -2.05323 6.23043
R_Thigh  7.66658 0.725523 21.5457
R_Calf  1.50235 1.27347 3.96487
R_Foot  2.07165 3.93017 -12.689
R_Toe0  -4.04678 0.0198509 -16.1263
674
root  2.05565 30.2342 1.22354 -18.3592 8.0414 88.0955
Spine  1.00985 14.9749 4.02144
Spine1  -2.82402 9.48139 -11.4513
Neck  3.97569e-016 0 -2.38542e-015
Head  -24.6429 -16.0435 5.52037
R_Clavicle  -0.548567 0.154827 -2.76245
R_UpperArm  1.91807 7.39259 3.21529
R_Forearm  2.5898 -5.50229 4.57377
R_Hand  1.72445 9.89852 -0.669629
L_Clavicle  -0.359633 3.7954 2.35982
L_UpperArm  -16.0031 -31.5383 -22.026
L_Forearm  -4.09953 8.96188 10.4849
L_Hand  -0.406766 8.67293 -3.04613
L_Thigh  -4.28391 -20.776 -11.2415
L_Calf  5.55137 -0.483923 3.3728
L_Foot  10.0062 15.7661 17.4499
L_Toe0  8.24346 -1.79729 5.90512
R_Thigh  16.4049 1.27638 22.7905
R_Calf  -2.19537 0.769068 2.39085
R_Foot  1.28461 -1.50637 -13.8942
R_Toe0  -10.7583 1.45653 -7.44006
